<?xml version="1.0" standalone="no"?>
<!DOCTYPE svg PUBLIC "-//W3C//DTD SVG 20010904//EN"
 "http://www.w3.org/TR/2001/REC-SVG-20010904/DTD/svg10.dtd">
<svg version="1.0" xmlns="http://www.w3.org/2000/svg"
 width="960.000000pt" height="960.000000pt" viewBox="0 0 960.000000 960.000000"
 preserveAspectRatio="xMidYMid meet">
<metadata>
Created by potrace 1.11, written by Peter Selinger 2001-2013
</metadata>
<g transform="translate(0.000000,960.000000) scale(0.100000,-0.100000)"
fill="#000000" stroke="none">
<path d="M2230 7365 l-55 -55 1255 -1255 1255 -1255 -1254 -1254 -1255 -1255
50 -54 c47 -52 68 -66 76 -49 2 4 565 567 1251 1252 l1247 1245 1255 -1255
1255 -1255 57 58 58 57 -1255 1255 -1255 1255 1254 1254 1255 1255 -50 54
c-47 52 -68 66 -76 50 -2 -5 -565 -568 -1251 -1253 l-1247 -1245 -1253 1253
c-688 688 -1254 1252 -1257 1252 -3 0 -30 -25 -60 -55z"/>
<path d="M4316 7411 c-1 -4 -2 -40 -2 -81 l1 -75 65 1 65 2 0 -532 0 -531 -65
-3 -66 -3 0 -75 c-1 -68 1 -75 20 -79 25 -5 684 1 707 7 52 13 152 74 193 118
43 46 101 151 105 190 4 40 3 147 -2 166 -17 67 -111 184 -159 200 -26 8 -23
16 19 44 54 36 89 76 115 129 31 63 31 191 0 271 -41 103 -128 187 -243 232
-51 20 -73 21 -402 23 -192 0 -349 -1 -351 -4z m694 -172 c169 -96 177 -331
14 -410 -42 -20 -62 -22 -213 -23 -91 -1 -171 -1 -176 1 -7 2 -10 84 -9 226 1
122 2 222 3 223 0 0 81 0 179 -1 133 -1 183 -5 202 -16z m20 -613 c141 -74
161 -257 40 -376 -34 -34 -59 -49 -86 -53 -55 -9 -354 -9 -355 1 -3 19 -5 428
-2 438 3 8 61 11 186 9 155 -1 187 -4 217 -19z"/>
<path d="M2194 5328 l1 -182 88 -1 c48 -1 90 2 93 6 2 5 5 53 6 108 0 75 4
101 14 105 8 3 14 2 14 -2 0 -4 64 -7 142 -7 l143 0 0 -525 c1 -289 0 -530 -2
-536 -2 -6 -28 -10 -63 -9 l-59 2 -3 -79 -3 -78 35 -1 c145 -4 399 -1 407 4 7
4 10 37 10 79 l-2 73 -60 1 c-33 1 -65 2 -70 3 -7 1 -10 185 -10 534 l0 532
181 2 181 2 0 -98 c0 -54 3 -103 6 -108 3 -5 45 -9 94 -8 l88 1 0 182 1 182
-616 0 -617 0 1 -182z"/>
<path d="M6260 5431 l0 -80 65 2 65 2 0 -30 c4 -254 0 -1029 -5 -1033 -3 -4
-32 -7 -63 -7 l-57 0 0 -79 0 -79 275 0 c238 0 309 4 390 19 38 7 160 57 171
70 6 8 16 14 22 14 11 0 116 86 135 112 7 9 18 23 25 30 60 64 114 184 145
323 12 56 7 240 -7 295 -47 169 -131 298 -256 389 -76 55 -122 77 -216 105
-82 23 -98 24 -387 26 l-302 1 0 -80z m652 -102 c152 -51 268 -179 314 -346
20 -75 25 -212 9 -280 -7 -29 -11 -53 -9 -53 2 0 -10 -30 -27 -66 -68 -152
-186 -256 -325 -286 -32 -8 -113 -13 -179 -13 l-120 0 -3 532 -2 532 72 3
c124 5 209 -2 270 -23z"/>
<path d="M5040 3367 c-20 -10 -25 -20 -24 -50 0 -24 -4 -37 -13 -38 -7 -1 -19
-2 -25 -3 -7 0 -14 -11 -14 -23 -1 -18 4 -23 22 -23 13 0 25 -3 25 -7 1 -5 2
-56 3 -114 3 -148 17 -167 116 -159 32 2 42 12 34 34 -5 13 -14 15 -40 10 -44
-8 -51 9 -50 135 l1 96 38 3 c33 3 38 6 35 25 -2 15 -11 22 -28 24 -14 0 -30
1 -36 2 -6 1 -10 19 -10 42 2 52 -4 61 -34 46z"/>
<path d="M4404 3278 c-3 -5 -10 -6 -15 -3 -5 4 -9 2 -9 -3 0 -5 -10 -14 -23
-21 -33 -18 -52 -67 -52 -136 0 -78 17 -115 65 -147 46 -29 110 -30 173 -2 42
19 41 18 27 45 -10 18 -12 18 -42 3 -39 -20 -113 -14 -139 12 -10 11 -21 33
-25 50 l-6 31 107 -1 c58 -1 111 2 117 5 13 8 5 66 -14 105 -20 41 -58 65
-111 68 -27 1 -50 -1 -53 -6z m86 -54 c20 -12 43 -54 35 -62 -8 -9 -165 -11
-165 -3 0 3 9 20 19 38 23 38 75 50 111 27z"/>
<path d="M4746 3279 c-42 -12 -75 -56 -69 -94 7 -42 26 -60 91 -86 97 -38 114
-69 56 -97 -27 -13 -38 -13 -60 -3 -14 6 -28 19 -31 29 -4 16 -22 19 -63 13
-3 -1 -7 -12 -8 -26 -1 -17 3 -25 14 -25 8 0 24 -9 36 -20 22 -21 37 -24 100
-22 60 1 109 49 102 100 -1 6 -2 16 -3 22 -3 21 -55 58 -107 74 -67 21 -88 51
-54 78 12 10 28 18 35 18 28 0 65 -20 65 -35 0 -11 10 -15 36 -15 33 0 35 2
32 28 -2 15 -7 27 -13 27 -5 0 -23 9 -38 19 -32 21 -78 27 -121 15z"/>
<path d="M5233 3023 c-15 -5 -17 -41 -4 -62 11 -17 56 -7 65 15 14 35 -22 63
-61 47z"/>
<path d="M4160 2634 c-57 -31 -65 -39 -65 -65 -1 -35 11 -36 59 -8 l36 21 0
-170 0 -170 -25 -6 c-19 -5 -24 -12 -21 -29 3 -20 8 -22 80 -23 l77 -1 -3 26
c-2 14 -9 27 -15 27 -7 1 -17 2 -21 3 -5 0 -9 97 -9 214 1 176 -2 212 -14 214
-8 2 -43 -13 -79 -33z"/>
<path d="M4490 2660 c-89 -42 -125 -95 -116 -172 3 -27 13 -59 23 -73 26 -36
96 -68 138 -63 19 2 35 1 35 -3 0 -4 -20 -40 -45 -80 -25 -40 -45 -76 -45 -80
0 -4 15 -6 34 -6 30 1 36 7 62 57 15 30 31 57 34 60 19 15 90 177 90 204 -1
49 -34 110 -73 134 -35 23 -111 34 -137 22z m99 -65 c44 -22 67 -110 38 -145
-44 -55 -124 -60 -169 -10 -80 87 25 210 131 155z"/>
<path d="M4880 2656 c-77 -32 -104 -136 -51 -193 18 -19 17 -20 -10 -48 -54
-54 -51 -144 7 -194 19 -17 38 -31 42 -32 9 -1 49 -8 59 -11 4 -1 24 2 43 6
42 10 76 39 99 86 21 45 10 109 -24 142 -26 24 -32 44 -15 50 22 7 38 79 27
115 -20 66 -112 107 -177 79z m106 -68 c19 -17 22 -36 16 -84 -1 -6 -16 -18
-33 -27 -75 -36 -144 39 -97 105 28 41 73 43 114 6z m7 -203 c26 -25 31 -39
28 -80 -2 -25 -53 -70 -82 -72 -53 -4 -113 57 -100 102 22 74 100 99 154 50z"/>
<path d="M5329 2665 c-3 -2 -19 -5 -37 -7 -18 -1 -32 -6 -32 -10 0 -4 -6 -8
-13 -8 -15 0 -49 -34 -65 -66 -29 -56 -12 -145 34 -185 28 -24 92 -42 125 -35
28 5 40 -6 20 -19 -6 -3 -16 -18 -24 -33 -8 -15 -26 -48 -41 -73 l-26 -46 34
-1 c32 -1 37 3 67 56 103 178 122 220 122 270 1 79 -46 131 -139 157 -11 3
-23 3 -25 0z m76 -86 c26 -26 38 -81 24 -116 -13 -36 -68 -64 -109 -56 -80 14
-111 66 -86 141 20 60 124 79 171 31z"/>
</g>
</svg>
