<?xml version="1.0" encoding="iso-8859-1"?>
<!-- Generator: Adobe Illustrator 19.0.0, SVG Export Plug-In . SVG Version: 6.00 Build 0)  -->
<svg version="1.1" id="Capa_1" xmlns="http://www.w3.org/2000/svg" xmlns:xlink="http://www.w3.org/1999/xlink" x="0px" y="0px"
	 viewBox="0 0 512 512" style="enable-background:new 0 0 512 512;" xml:space="preserve">
<g>
	<g>
		<g>
			<path d="M343.363,47.808h-0.971c-4.142,0-7.5,3.357-7.5,7.5s3.358,7.5,7.5,7.5h0.971c4.142,0,7.5-3.357,7.5-7.5
				S347.505,47.808,343.363,47.808z"/>
			<path d="M318.61,47.808h-0.971c-4.142,0-7.5,3.357-7.5,7.5s3.358,7.5,7.5,7.5h0.971c4.142,0,7.5-3.357,7.5-7.5
				S322.752,47.808,318.61,47.808z"/>
			<path d="M152.135,292.621c4.142,0,7.5-3.357,7.5-7.5s-3.358-7.5-7.5-7.5H70.596c-4.142,0-7.5,3.357-7.5,7.5s3.358,7.5,7.5,7.5
				H152.135z"/>
			<path d="M172.843,330.524H26.914C20.345,330.524,15,325.18,15,318.61V193.39c0-6.569,5.345-11.914,11.914-11.914h19.415
				c4.142,0,7.5-3.357,7.5-7.5s-3.358-7.5-7.5-7.5H26.914C12.074,166.476,0,178.549,0,193.39v125.22
				c0,14.841,12.074,26.914,26.914,26.914h145.929c4.142,0,7.5-3.357,7.5-7.5S176.985,330.524,172.843,330.524z"/>
			<path d="M70.596,234.379H187.08c4.142,0,7.5-3.357,7.5-7.5s-3.358-7.5-7.5-7.5H70.596c-4.142,0-7.5,3.357-7.5,7.5
				C63.096,231.021,66.454,234.379,70.596,234.379z"/>
			<path d="M187.08,248.5H70.596c-4.142,0-7.5,3.357-7.5,7.5s3.358,7.5,7.5,7.5H187.08c4.142,0,7.5-3.357,7.5-7.5
				S191.222,248.5,187.08,248.5z"/>
			<path d="M367.146,47.808h-0.971c-4.142,0-7.5,3.357-7.5,7.5s3.358,7.5,7.5,7.5h0.971c4.142,0,7.5-3.357,7.5-7.5
				S371.288,47.808,367.146,47.808z"/>
			<path d="M442.375,248.5h-0.971c-4.142,0-7.5,3.357-7.5,7.5s3.358,7.5,7.5,7.5h0.971c4.142,0,7.5-3.357,7.5-7.5
				S446.517,248.5,442.375,248.5z"/>
			<path d="M366.175,464.192h0.971c4.142,0,7.5-3.357,7.5-7.5s-3.358-7.5-7.5-7.5h-0.971c-4.142,0-7.5,3.357-7.5,7.5
				S362.033,464.192,366.175,464.192z"/>
			<path d="M484.5,200.693h-86.191c-15.164,0-27.5,12.337-27.5,27.5V248.5H257.676v-29.653h26.472
				c36.25,0,65.742-29.492,65.742-65.742v-42.491h35.597c15.164,0,27.5-12.337,27.5-27.5V27.5c0-15.163-12.336-27.5-27.5-27.5
				h-86.191c-15.164,0-27.5,12.337-27.5,27.5v55.615c0,15.163,12.336,27.5,27.5,27.5h35.593v42.491
				c0,27.979-22.763,50.742-50.742,50.742h-26.472V193.39c0-14.841-12.074-26.914-26.914-26.914H75.772c-4.142,0-7.5,3.357-7.5,7.5
				s3.358,7.5,7.5,7.5h154.991c6.569,0,11.914,5.345,11.914,11.914v125.221c0,6.569-5.345,11.914-11.914,11.914h-29.768
				c-4.142,0-7.5,3.357-7.5,7.5s3.358,7.5,7.5,7.5h29.768c14.84,0,26.914-12.073,26.914-26.914v-10.458h26.472
				c27.979,0,50.742,22.763,50.742,50.742v42.491h-35.593c-15.164,0-27.5,12.337-27.5,27.5V484.5c0,15.163,12.336,27.5,27.5,27.5
				h86.191c15.164,0,27.5-12.337,27.5-27.5v-55.615c0-15.163-12.336-27.5-27.5-27.5H349.89v-42.491
				c0-36.25-29.492-65.742-65.742-65.742h-26.472V263.5h113.133v20.307c0,15.163,12.336,27.5,27.5,27.5H484.5
				c15.164,0,27.5-12.337,27.5-27.5v-55.614C512,213.03,499.664,200.693,484.5,200.693z M299.297,95.614
				c-6.893,0-12.5-5.607-12.5-12.5V27.5c0-6.893,5.607-12.5,12.5-12.5h86.191c6.893,0,12.5,5.607,12.5,12.5v55.614
				c0,6.893-5.607,12.5-12.5,12.5H299.297z M385.488,416.386c6.893,0,12.5,5.607,12.5,12.5V484.5c0,6.893-5.607,12.5-12.5,12.5
				h-86.191c-6.893,0-12.5-5.607-12.5-12.5v-55.614c0-6.893,5.607-12.5,12.5-12.5H385.488z M497,283.807
				c0,6.893-5.607,12.5-12.5,12.5h-86.191c-6.893,0-12.5-5.607-12.5-12.5v-55.614c0-6.893,5.607-12.5,12.5-12.5H484.5
				c6.893,0,12.5,5.607,12.5,12.5V283.807z"/>
			<path d="M466.157,248.5h-0.971c-4.142,0-7.5,3.357-7.5,7.5s3.358,7.5,7.5,7.5h0.971c4.142,0,7.5-3.357,7.5-7.5
				S470.299,248.5,466.157,248.5z"/>
			<path d="M342.393,464.192h0.971c4.142,0,7.5-3.357,7.5-7.5s-3.358-7.5-7.5-7.5h-0.971c-4.142,0-7.5,3.357-7.5,7.5
				S338.25,464.192,342.393,464.192z"/>
			<path d="M317.64,464.192h0.971c4.142,0,7.5-3.357,7.5-7.5s-3.358-7.5-7.5-7.5h-0.971c-4.142,0-7.5,3.357-7.5,7.5
				S313.498,464.192,317.64,464.192z"/>
			<path d="M417.622,248.5h-0.971c-4.142,0-7.5,3.357-7.5,7.5s3.358,7.5,7.5,7.5h0.971c4.142,0,7.5-3.357,7.5-7.5
				S421.764,248.5,417.622,248.5z"/>
		</g>
	</g>
</g>
<g>
</g>
<g>
</g>
<g>
</g>
<g>
</g>
<g>
</g>
<g>
</g>
<g>
</g>
<g>
</g>
<g>
</g>
<g>
</g>
<g>
</g>
<g>
</g>
<g>
</g>
<g>
</g>
<g>
</g>
</svg>
