<?xml version="1.0" encoding="iso-8859-1"?>
<!-- Generator: Adobe Illustrator 19.0.0, SVG Export Plug-In . SVG Version: 6.00 Build 0)  -->
<svg version="1.1" id="Capa_1" xmlns="http://www.w3.org/2000/svg" xmlns:xlink="http://www.w3.org/1999/xlink" x="0px" y="0px"
	 viewBox="0 0 512 512" style="enable-background:new 0 0 512 512;" xml:space="preserve">
<g>
	<g>
		<path d="M246.43,151.786c-9.043,0-17.861,2.861-25.244,8.043c-7.384-5.183-16.203-8.043-25.245-8.043
			c-24.675,0-44.749,20.67-44.749,46.077c0,38.411,58.528,71.483,65.202,75.128c1.493,0.815,3.144,1.224,4.793,1.224
			s3.3-0.408,4.793-1.224c6.673-3.645,65.202-36.717,65.202-75.128C291.181,172.457,271.106,151.786,246.43,151.786z
			 M221.18,252.666c-16.878-10.208-49.99-34.409-49.99-54.802c0-14.38,11.103-26.079,24.751-26.079c6.798,0,13.14,2.85,17.854,8.022
			c1.895,2.079,4.578,3.264,7.39,3.264c2.813,0,5.496-1.185,7.391-3.264c4.715-5.174,11.055-8.022,17.852-8.022
			c13.648,0,24.752,11.699,24.752,26.079C271.182,218.2,238.053,242.439,221.18,252.666z"/>
	</g>
</g>
<g>
	<g>
		<path d="M297.822,319.934c-1.86-1.859-4.44-2.93-7.069-2.93s-5.21,1.07-7.068,2.93c-1.86,1.86-2.931,4.44-2.931,7.069
			c0,2.63,1.07,5.21,2.931,7.069c1.859,1.859,4.439,2.93,7.068,2.93s5.21-1.07,7.069-2.93c1.86-1.87,2.93-4.44,2.93-7.069
			C300.752,324.374,299.683,321.794,297.822,319.934z"/>
	</g>
</g>
<g>
	<g>
		<path d="M256.799,317.002H54.123l-0.011-207.956h44.949c5.522,0,9.999-4.477,9.999-9.999s-4.478-9.999-9.999-9.999H44.113
			c-2.652,0-5.196,1.054-7.07,2.929c-1.875,1.875-2.929,4.419-2.929,7.07l0.011,227.954c0,5.523,4.478,9.999,9.999,9.999h212.675
			c5.522,0,9.999-4.478,9.999-9.999S262.322,317.002,256.799,317.002z"/>
	</g>
</g>
<g>
	<g>
		<path d="M135.537,89.049h-0.384c-5.522,0-9.999,4.477-9.999,9.999s4.478,9.999,9.999,9.999h0.384c5.522,0,9.999-4.477,9.999-9.999
			S141.058,89.049,135.537,89.049z"/>
	</g>
</g>
<g>
	<g>
		<path d="M418.253,414.522c-5.79,0-10.5,4.71-10.5,10.499c0,5.789,4.711,10.499,10.5,10.499c5.789,0,10.498-4.71,10.498-10.499
			C428.751,419.232,424.041,414.522,418.253,414.522z"/>
	</g>
</g>
<g>
	<g>
		<path d="M483.938,164.007h-41.608V82.456c0-15.682-12.758-28.44-28.44-28.44H28.439C12.758,54.017,0,66.774,0,82.457l0.01,279.576
			c0,5.523,4.478,9.999,9.999,9.999h165.565v65.952h-24.025c-5.522,0-9.999,4.478-9.999,9.999c0,5.521,4.478,9.999,9.999,9.999
			h139.203c5.522,0,9.999-4.478,9.999-9.999c0-5.522-4.478-9.999-9.999-9.999H266.8v-65.952h57.217v57.889
			c0,15.474,12.589,28.062,28.062,28.062h131.86c15.474,0,28.062-12.589,28.062-28.062v-27.934V204.101V192.07
			C512,176.596,499.411,164.007,483.938,164.007z M246.8,437.984h-51.228v-65.952H246.8V437.984z M324.016,192.069V204.1v147.933
			h-67.216v0.001h-71.226H20.008l-0.01-269.577c0-4.655,3.787-8.441,8.44-8.441h385.451c4.655,0,8.441,3.787,8.441,8.441v81.551
			h-14.117v-64.96c0-5.523-4.478-9.999-9.999-9.999H170.034c-5.522,0-9.999,4.477-9.999,9.999s4.478,9.999,9.999,9.999h218.183
			v54.96h-36.139C336.604,164.007,324.016,176.596,324.016,192.069z M492.002,429.921c0,4.446-3.618,8.063-8.063,8.063H352.077
			c-4.446,0-8.063-3.618-8.063-8.063v-17.934h147.988V429.921z M492.002,391.988H344.014V214.1h147.988V391.988z M492.002,194.102
			H344.014v-2.032c0-4.447,3.618-8.063,8.063-8.063h131.86c4.447-0.001,8.064,3.617,8.064,8.063V194.102z"/>
	</g>
</g>
<g>
	<g>
		<path d="M439.183,250.261c-7.802,0-15.416,2.373-21.878,6.688c-6.462-4.316-14.077-6.688-21.879-6.688
			c-22.12,0-40.116,18.512-40.116,41.268c0,34.057,51.348,63.084,57.202,66.28c1.493,0.816,3.144,1.224,4.793,1.224
			s3.3-0.408,4.793-1.224c5.854-3.197,57.202-32.222,57.202-66.28C479.3,268.773,461.303,250.261,439.183,250.261z M417.326,337.483
			c-14.601-8.924-42.017-29.125-42.017-45.953c0-11.728,9.024-21.269,20.117-21.269c5.513,0,10.658,2.316,14.489,6.518
			c1.895,2.079,4.578,3.264,7.39,3.264s5.496-1.185,7.39-3.264c3.831-4.204,8.976-6.518,14.488-6.518
			c11.094,0,20.118,9.541,20.118,21.269C459.301,306.925,435.266,326.651,417.326,337.483z"/>
	</g>
</g>
<g>
</g>
<g>
</g>
<g>
</g>
<g>
</g>
<g>
</g>
<g>
</g>
<g>
</g>
<g>
</g>
<g>
</g>
<g>
</g>
<g>
</g>
<g>
</g>
<g>
</g>
<g>
</g>
<g>
</g>
</svg>
