<svg version="1.1" viewBox="0.0 0.0 960.0 720.0" fill="none" stroke="none" stroke-linecap="square" stroke-miterlimit="10" xmlns:xlink="http://www.w3.org/1999/xlink" xmlns="http://www.w3.org/2000/svg"><clipPath id="p.0"><path d="m0 0l960.0 0l0 720.0l-960.0 0l0 -720.0z" clip-rule="nonzero"/></clipPath><g clip-path="url(#p.0)"><path fill="#000000" fill-opacity="0.0" d="m0 0l960.0 0l0 720.0l-960.0 0z" fill-rule="evenodd"/><path fill="#000000" fill-opacity="0.0" d="m223.2441 103.244095l513.51184 513.51184" fill-rule="evenodd"/><path stroke="#000000" stroke-width="16.0" stroke-linejoin="round" stroke-linecap="butt" d="m223.2441 103.244095l513.51184 513.51184" fill-rule="evenodd"/><path fill="#000000" fill-opacity="0.0" d="m736.7559 103.244095l-513.51184 513.51184" fill-rule="evenodd"/><path stroke="#000000" stroke-width="16.0" stroke-linejoin="round" stroke-linecap="butt" d="m736.7559 103.244095l-513.51184 513.51184" fill-rule="evenodd"/><path fill="#000000" fill-opacity="0.0" d="m206.65092 271.87402l116.12599 0l0 176.25195l-116.12599 0z" fill-rule="evenodd"/><path fill="#000000" d="m256.93216 411.52814l12.671875 0l0 -107.546875l-31.531235 0l0 21.5l-18.6875 0l0 -36.453125l123.218735 0l0 36.453125l-18.671875 0l0 -21.5l-36.46875 0l0 107.546875l14.21875 0l0 15.671875l-44.75 0l0 -15.671875z" fill-rule="nonzero"/><path fill="#000000" fill-opacity="0.0" d="m599.4252 271.87402l164.50397 0l0 176.25195l-164.50397 0z" fill-rule="evenodd"/><path fill="#000000" d="m626.0339 289.02814l51.40625 0q9.484375 0 18.046875 2.46875q8.5625 2.453125 15.9375 6.921875q7.390625 4.46875 13.40625 10.71875q6.015625 6.234375 10.25 13.890625q4.25 7.65625 6.515625 16.453125q2.28125 8.796875 2.28125 18.265625q0 9.671875 -2.28125 18.515625q-2.265625 8.828125 -6.515625 16.578125q-4.234375 7.75 -10.25 14.09375q-6.015625 6.328125 -13.40625 10.84375q-7.375 4.5 -15.9375 6.96875q-8.5625 2.453125 -18.046875 2.453125l-51.40625 0l0 -15.671875l13.125 0l0 -106.734375l-13.125 0l0 -15.765625zm30.984375 15.765625l0 106.734375l21.515625 0q9.5625 0 18.0 -4.1875q8.4375 -4.203125 14.71875 -11.4375q6.28125 -7.25 9.921875 -17.046875q3.65625 -9.796875 3.65625 -21.109375q0 -11.109375 -3.65625 -20.765625q-3.640625 -9.671875 -9.921875 -16.828125q-6.28125 -7.15625 -14.71875 -11.25q-8.4375 -4.109375 -18.0 -4.109375l-21.515625 0z" fill-rule="nonzero"/><path fill="#000000" fill-opacity="0.0" d="m397.74802 81.385826l164.50394 0l0 176.25195l-164.50394 0z" fill-rule="evenodd"/><path fill="#000000" d="m431.4201 221.03995l13.125 0l0 -106.73438l-13.125 0l0 -15.953125l62.15625 0.1875q8.390625 0 15.765625 3.15625q7.390625 3.140625 12.859375 8.5625q5.46875 5.421875 8.609375 12.8125q3.140625 7.3750076 3.140625 15.843758q0 8.84375 -4.921875 16.140625q-4.921875 7.28125 -14.03125 11.65625q4.46875 2.375 8.109375 5.515625q3.640625 3.140625 6.1875 6.890625q2.5625 3.734375 3.96875 7.921875q1.421875 4.1875 1.421875 8.5625q0 8.65625 -3.15625 16.140625q-3.140625 7.46875 -8.609375 13.03125q-5.46875 5.5625 -12.8125 8.75q-7.328125 3.1875 -15.703125 3.1875l-62.984375 0l0 -15.671875zm30.984375 -45.75l0 45.75l32.171875 0q4.375 0 8.109375 -2.1875q3.75 -2.1875 6.5625 -5.6875q2.828125 -3.515625 4.421875 -7.984375q1.59375 -4.46875 1.59375 -9.125q0 -4.0 -1.640625 -7.734375q-1.640625 -3.734375 -4.421875 -6.65625q-2.765625 -2.921875 -6.546875 -4.640625q-3.78125 -1.734375 -8.078125 -1.734375l-32.171875 0zm0 -60.984383l0 45.125008l31.359375 0q4.375 0 8.15625 -1.734375q3.78125 -1.734375 6.5625 -4.640625q2.78125 -2.921875 4.421875 -6.75q1.640625 -3.828125 1.640625 -7.9375q0 -4.46875 -1.640625 -8.796875q-1.640625 -4.3281326 -4.46875 -7.6875076q-2.828125 -3.375 -6.609375 -5.46875q-3.78125 -2.109375 -8.0625 -2.109375l-31.359375 0z" fill-rule="nonzero"/><path fill="#000000" fill-opacity="0.0" d="m382.40945 472.12598l195.18112 0l0 176.25195l-195.18112 0z" fill-rule="evenodd"/><path fill="#000000" d="m435.71875 529.25446q0 1.375 0.203125 2.515625q0.203125 1.140625 0.578125 2.171875q1.15625 3.125 3.703125 4.703125q2.546875 1.578125 5.765625 1.578125q2.53125 0 4.921875 -0.703125q2.390625 -0.703125 5.015625 -2.203125l2.34375 3.96875q-3.1875 2.1875 -6.40625 3.25q-3.21875 1.0625 -6.6875 1.0625q-3.28125 0 -6.078125 -1.09375q-2.796875 -1.09375 -4.8125 -3.25q-2.015625 -2.15625 -3.15625 -5.375q-1.140625 -3.21875 -1.140625 -7.5q0 -3.46875 0.96875 -6.546875q0.96875 -3.078125 2.890625 -5.375q1.921875 -2.296875 4.765625 -3.640625q2.84375 -1.34375 6.625 -1.34375q3.65625 0 6.109375 1.109375q2.453125 1.109375 4.0 2.9375q1.546875 1.828125 2.34375 4.171875q0.796875 2.34375 1.109375 4.78125q0.15625 1.1875 0.203125 2.40625q0.046875 1.21875 0.046875 2.375l-23.3125 0zm9.09375 -12.90625q-2.03125 0 -3.546875 0.578125q-1.515625 0.578125 -2.578125 1.65625q-1.0625 1.078125 -1.703125 2.640625q-0.640625 1.5625 -0.953125 3.5l16.78125 0q-0.125 -1.8125 -0.578125 -3.34375q-0.453125 -1.53125 -1.390625 -2.65625q-0.9375 -1.125 -2.40625 -1.75q-1.46875 -0.625 -3.625 -0.625zm40.8125 4.65625q0 -1.3125 -0.609375 -2.234375q-0.609375 -0.921875 -1.578125 -1.5q-0.96875 -0.578125 -2.15625 -0.84375q-1.1875 -0.265625 -2.3125 -0.265625q-1.25 0 -2.296875 0.28125q-1.046875 0.28125 -1.796875 0.8125q-0.75 0.53125 -1.171875 1.296875q-0.421875 0.765625 -0.421875 1.703125q0 1.625 0.984375 2.578125q0.984375 0.953125 3.296875 1.765625l6.21875 2.1875q4.0 1.34375 5.84375 3.65625q1.84375 2.3125 1.84375 5.53125q0 2.15625 -0.859375 3.953125q-0.859375 1.796875 -2.4375 3.0625q-1.578125 1.265625 -3.796875 1.96875q-2.21875 0.703125 -4.9375 0.703125q-3.78125 0 -6.15625 -1.21875q-2.375 -1.21875 -3.65625 -3.21875l-3.25 0l0 -5.375l6.46875 0q0 1.34375 0.578125 2.296875q0.578125 0.953125 1.53125 1.546875q0.953125 0.59375 2.15625 0.875q1.203125 0.28125 2.453125 0.28125q1.21875 0 2.34375 -0.296875q1.125 -0.296875 1.984375 -0.875q0.859375 -0.578125 1.359375 -1.390625q0.5 -0.8125 0.5 -1.84375q0 -1.5625 -1.015625 -2.65625q-1.015625 -1.09375 -3.453125 -1.96875l-6.1875 -2.3125q-3.78125 -1.34375 -5.609375 -3.421875q-1.828125 -2.078125 -1.828125 -5.203125q0 -2.0625 0.765625 -3.8125q0.765625 -1.75 2.21875 -3.015625q1.453125 -1.265625 3.546875 -1.984375q2.09375 -0.71875 4.78125 -0.71875q3.46875 0 5.8125 0.96875q2.34375 0.96875 4.21875 3.3125l3.03125 0l0 5.375l-6.40625 0zm21.71875 -8.6875l7.59375 0l0 4.71875l-7.65625 0l-0.09375 18.6875q0 1.90625 0.4375 3.09375q0.4375 1.1875 1.40625 1.640625q0.96875 0.453125 2.1875 0.453125q1.3125 0 2.3125 -0.234375q1.0 -0.234375 2.1875 -0.796875l1.34375 3.90625q-1.5 0.78125 -3.15625 1.234375q-1.65625 0.453125 -3.90625 0.453125q-2.125 0 -3.703125 -0.515625q-1.578125 -0.515625 -2.65625 -1.734375q-1.078125 -1.21875 -1.609375 -3.265625q-0.53125 -2.046875 -0.53125 -5.109375l0.09375 -17.8125l-5.15625 0l0 -4.71875l5.21875 0l0 -7.75l5.6875 -2.6875l0 10.4375zm14.3125 28.59375q0 -0.8125 0.328125 -1.546875q0.328125 -0.734375 0.890625 -1.28125q0.5625 -0.546875 1.296875 -0.875q0.734375 -0.328125 1.578125 -0.328125q0.8125 0 1.546875 0.328125q0.734375 0.328125 1.28125 0.875q0.546875 0.546875 0.875 1.28125q0.328125 0.734375 0.328125 1.546875q0 0.84375 -0.328125 1.59375q-0.328125 0.75 -0.875 1.328125q-0.546875 0.578125 -1.28125 0.90625q-0.734375 0.328125 -1.546875 0.328125q-0.84375 0 -1.578125 -0.328125q-0.734375 -0.328125 -1.296875 -0.90625q-0.5625 -0.578125 -0.890625 -1.328125q-0.328125 -0.75 -0.328125 -1.59375z" fill-rule="nonzero"/><path fill="#000000" d="m414.53125 616.31696l4.59375 0l0 -34.65625l-9.59375 5.21875l0 -6.53125l13.1875 -7.375l2.5 0l0 43.34375l4.65625 0l0 5.375l-15.34375 0l0 -5.375zm32.6875 5.375l10.90625 -17.875q-1.5625 0.625 -2.84375 0.84375q-1.28125 0.21875 -2.75 0.21875q-2.75 0 -5.703125 -1.078125q-2.953125 -1.078125 -5.03125 -3.03125q-2.078125 -1.953125 -3.4375 -4.8125q-1.359375 -2.859375 -1.359375 -5.796875q0 -3.96875 1.34375 -7.0625q1.34375 -3.09375 3.625 -5.21875q2.28125 -2.125 5.296875 -3.234375q3.015625 -1.109375 6.390625 -1.109375q3.375 0 6.296875 1.125q2.921875 1.125 5.203125 3.234375q2.28125 2.109375 3.578125 5.03125q1.296875 2.921875 1.296875 6.484375q0 2.75 -1.046875 5.4375q-1.046875 2.6875 -2.609375 5.625l-11.875 21.21875l-7.28125 0zm6.28125 -42.71875q-2.125 0 -4.0625 0.75q-1.9375 0.75 -3.40625 2.125q-1.46875 1.375 -2.34375 3.28125q-0.875 1.90625 -0.875 4.21875q0 2.5625 0.9375 4.515625q0.9375 1.953125 2.515625 3.265625q1.578125 1.3125 3.53125 1.96875q1.953125 0.65625 3.921875 0.65625q2.875 0 4.453125 -0.703125q1.578125 -0.703125 2.984375 -1.96875q1.40625 -1.265625 2.21875 -3.21875q0.8125 -1.953125 0.8125 -4.515625q0 -2.4375 -0.8125 -4.375q-0.8125 -1.9375 -2.25 -3.265625q-1.4375 -1.328125 -3.390625 -2.03125q-1.953125 -0.703125 -4.234375 -0.703125zm39.6875 -5.53125q2.6875 0 5.078125 0.96875q2.390625 0.96875 4.203125 2.65625q1.8125 1.6875 2.859375 3.953125q1.046875 2.265625 1.046875 4.828125q0 3.0625 -1.4375 5.65625q-1.4375 2.59375 -3.84375 4.28125q1.59375 0.9375 2.90625 2.234375q1.3125 1.296875 2.25 2.84375q0.9375 1.546875 1.453125 3.328125q0.515625 1.78125 0.515625 3.6875q0 2.96875 -1.203125 5.5625q-1.203125 2.59375 -3.265625 4.546875q-2.0625 1.953125 -4.8125 3.078125q-2.75 1.125 -5.875 1.125q-3.15625 0 -5.9375 -1.125q-2.78125 -1.125 -4.84375 -3.078125q-2.0625 -1.953125 -3.265625 -4.546875q-1.203125 -2.59375 -1.203125 -5.5625q0 -1.90625 0.515625 -3.703125q0.515625 -1.796875 1.46875 -3.34375q0.953125 -1.546875 2.28125 -2.84375q1.328125 -1.296875 2.953125 -2.234375q-2.375 -1.71875 -3.765625 -4.296875q-1.390625 -2.578125 -1.390625 -5.609375q0 -2.5625 1.03125 -4.828125q1.03125 -2.265625 2.828125 -3.953125q1.796875 -1.6875 4.234375 -2.65625q2.4375 -0.96875 5.21875 -0.96875zm-9.65625 34.3125q0 1.84375 0.75 3.484375q0.75 1.640625 2.046875 2.859375q1.296875 1.21875 3.03125 1.9375q1.734375 0.71875 3.703125 0.71875q1.9375 0 3.65625 -0.71875q1.71875 -0.71875 3.015625 -1.9375q1.296875 -1.21875 2.046875 -2.859375q0.75 -1.640625 0.75 -3.484375q0 -1.8125 -0.75 -3.4375q-0.75 -1.625 -2.046875 -2.84375q-1.296875 -1.21875 -3.015625 -1.921875q-1.71875 -0.703125 -3.65625 -0.703125q-1.96875 0 -3.703125 0.703125q-1.734375 0.703125 -3.03125 1.921875q-1.296875 1.21875 -2.046875 2.84375q-0.75 1.625 -0.75 3.4375zm1.71875 -21.78125q0 1.5625 0.59375 2.921875q0.59375 1.359375 1.65625 2.375q1.0625 1.015625 2.515625 1.609375q1.453125 0.59375 3.171875 0.59375q1.59375 0 3.0 -0.59375q1.40625 -0.59375 2.484375 -1.609375q1.078125 -1.015625 1.703125 -2.375q0.625 -1.359375 0.625 -2.921875q0 -1.53125 -0.625 -2.890625q-0.625 -1.359375 -1.703125 -2.375q-1.078125 -1.015625 -2.484375 -1.609375q-1.40625 -0.59375 -3.0 -0.59375q-1.71875 0 -3.171875 0.59375q-1.453125 0.59375 -2.515625 1.609375q-1.0625 1.015625 -1.65625 2.375q-0.59375 1.359375 -0.59375 2.890625zm41.53125 35.71875l10.90625 -17.875q-1.5625 0.625 -2.84375 0.84375q-1.28125 0.21875 -2.75 0.21875q-2.75 0 -5.703125 -1.078125q-2.953125 -1.078125 -5.03125 -3.03125q-2.078125 -1.953125 -3.4375 -4.8125q-1.359375 -2.859375 -1.359375 -5.796875q0 -3.96875 1.34375 -7.0625q1.34375 -3.09375 3.625 -5.21875q2.28125 -2.125 5.296875 -3.234375q3.015625 -1.109375 6.390625 -1.109375q3.375 0 6.296875 1.125q2.921875 1.125 5.203125 3.234375q2.28125 2.109375 3.578125 5.03125q1.296875 2.921875 1.296875 6.484375q0 2.75 -1.046875 5.4375q-1.046875 2.6875 -2.609375 5.625l-11.875 21.21875l-7.28125 0zm6.28125 -42.71875q-2.125 0 -4.0625 0.75q-1.9375 0.75 -3.40625 2.125q-1.46875 1.375 -2.34375 3.28125q-0.875 1.90625 -0.875 4.21875q0 2.5625 0.9375 4.515625q0.9375 1.953125 2.515625 3.265625q1.578125 1.3125 3.53125 1.96875q1.953125 0.65625 3.921875 0.65625q2.875 0 4.453125 -0.703125q1.578125 -0.703125 2.984375 -1.96875q1.40625 -1.265625 2.21875 -3.21875q0.8125 -1.953125 0.8125 -4.515625q0 -2.4375 -0.8125 -4.375q-0.8125 -1.9375 -2.25 -3.265625q-1.4375 -1.328125 -3.390625 -2.03125q-1.953125 -0.703125 -4.234375 -0.703125z" fill-rule="nonzero"/></g></svg>