<?xml version="1.0" encoding="iso-8859-1"?>
<!-- Generator: Adobe Illustrator 19.0.0, SVG Export Plug-In . SVG Version: 6.00 Build 0)  -->
<svg version="1.1" id="Layer_1" xmlns="http://www.w3.org/2000/svg" xmlns:xlink="http://www.w3.org/1999/xlink" x="0px" y="0px"
	 viewBox="0 0 512 512" style="enable-background:new 0 0 512 512;" xml:space="preserve">
<g>
	<g>
		<path d="M32.015,0v244.844v22.312V512h447.969V267.156v-22.312V0H32.015z M458.609,490.641H53.375V267.156h405.234V490.641z
			 M458.609,244.843H53.375V21.359h405.234V244.843z"/>
	</g>
</g>
<g>
	<g>
		<path d="M225.516,42.656L183.594,116L161.5,79.258l-54.828,91.43h45.719h64.016h82.234L225.516,42.656z M164.562,149.328h-20.187
			l17.125-28.656l9.984,16.625L164.562,149.328z M189.141,149.328l36.375-63.656l36.375,63.656H189.141z"/>
	</g>
</g>
<g>
	<g>
		<path d="M288.016,191.984H117.328c-5.844,0-10.656,4.812-10.656,10.719c0,5.828,4.812,10.641,10.656,10.641h170.688
			c5.906,0,10.625-4.812,10.625-10.641C298.641,196.797,293.922,191.984,288.016,191.984z"/>
	</g>
</g>
<g>
	<g>
		<path d="M117.328,437.336c-5.844,0-10.656,4.742-10.656,10.648s4.812,10.641,10.656,10.641c5.906,0,10.719-4.734,10.719-10.641
			S123.234,437.336,117.328,437.336z"/>
	</g>
</g>
<g>
	<g>
		<path d="M159.969,437.336c-5.828,0-10.641,4.742-10.641,10.648s4.812,10.641,10.641,10.641c5.906,0,10.719-4.734,10.719-10.641
			S165.875,437.336,159.969,437.336z"/>
	</g>
</g>
<g>
	<g>
		<path d="M202.703,437.336c-5.906,0-10.719,4.742-10.719,10.648s4.812,10.641,10.719,10.641c5.828,0,10.641-4.734,10.641-10.641
			S208.531,437.336,202.703,437.336z"/>
	</g>
</g>
<g>
	<g>
		<path d="M245.359,437.336c-5.906,0-10.719,4.742-10.719,10.648s4.812,10.641,10.719,10.641c5.812,0,10.625-4.734,10.625-10.641
			S251.172,437.336,245.359,437.336z"/>
	</g>
</g>
<g>
	<g>
		<path d="M288.016,437.336c-5.906,0-10.656,4.742-10.656,10.648s4.75,10.641,10.656,10.641s10.625-4.734,10.625-10.641
			S293.922,437.336,288.016,437.336z"/>
	</g>
</g>
<g>
	<g>
		<path d="M225.515,288.008l-41.922,73.352l-22.094-36.82l-54.828,91.43h45.719h64.016v-0.001h82.234L225.515,288.008z
			 M164.562,394.681h-20.187v-0.001l17.125-28.648l9.984,16.547L164.562,394.681z M189.141,394.68l36.375-63.648l36.375,63.648
			H189.141z"/>
	</g>
</g>
<g>
	<g>
		<path d="M434.203,107.188c-4.156-4.156-10.938-4.156-15.094,0l-37.688,37.766l-15.094-15.094c-4.156-4.156-10.938-4.156-15.094,0
			c-4.156,4.156-4.156,10.859,0,15.094l22.594,22.602c4.219,4.156,10.938,4.156,15.094,0l45.281-45.273
			C438.359,118.125,438.359,111.344,434.203,107.188z"/>
	</g>
</g>
<g>
	<g>
		<path d="M419.109,380.969l15.094-15.094c4.156-4.156,4.156-10.938,0-15.086c-4.156-4.156-10.938-4.156-15.094,0l-15.094,15.086
			l-15.031-15.086h-0.062c-4.156-4.156-10.875-4.156-15.094,0c-4.156,4.148-4.156,10.93,0,15.086l15.094,15.094l-15.094,15.023
			c-4.156,4.227-4.156,10.938,0,15.094c4.219,4.156,10.938,4.227,15.094,0h0.062l15.031-15.094l15.094,15.094
			c4.156,4.156,10.938,4.156,15.094,0s4.156-10.867,0-15.094L419.109,380.969z"/>
	</g>
</g>
<g>
</g>
<g>
</g>
<g>
</g>
<g>
</g>
<g>
</g>
<g>
</g>
<g>
</g>
<g>
</g>
<g>
</g>
<g>
</g>
<g>
</g>
<g>
</g>
<g>
</g>
<g>
</g>
<g>
</g>
</svg>
