<?xml version="1.0" encoding="iso-8859-1"?>
<!-- Generator: Adobe Illustrator 19.0.0, SVG Export Plug-In . SVG Version: 6.00 Build 0)  -->
<svg version="1.1" id="Capa_1" xmlns="http://www.w3.org/2000/svg" xmlns:xlink="http://www.w3.org/1999/xlink" x="0px" y="0px"
	 viewBox="0 0 512 512" style="enable-background:new 0 0 512 512;" xml:space="preserve">
<g>
	<g>
		<path d="M213.34,490.667V416c0-33.749-20.928-42.667-32-42.667h-64c-0.851,0.054-1.705,0.054-2.556,0
			c-11.076-0.706-19.483-10.257-18.777-21.333v-39.765c0.001-3.055-1.308-5.964-3.595-7.989
			C81.714,294.388,67.873,288.633,53.34,288c-0.047,0.006-0.095,0.011-0.142,0.016c-5.143,0.545-9.755-3.182-10.301-8.326
			l51.787-93.867c0.866-1.579,1.321-3.351,1.323-5.152V160c0.088-76.547,62.12-138.578,138.667-138.667V0
			c-88.324,0.1-159.9,71.676-160,160v17.931l-52.011,94.251c-0.866,1.579-1.321,3.351-1.323,5.152c-0.018,0.606-0.018,1.213,0,1.819
			c0.502,17.171,14.829,30.684,32,30.181c7.758,0.431,15.2,3.218,21.333,7.989V352c-0.024,0.815-0.024,1.631,0,2.447
			c0.676,22.888,19.778,40.896,42.667,40.22h63.701c1.824,0.117,10.965,1.707,10.965,21.333v85.333
			c0,5.891,4.776,10.667,10.667,10.667h85.333v-21.333H213.34z"/>
	</g>
</g>
<g>
	<g>
		<path d="M469.34,266.667V372.16c-1.536,6.368-11.819,43.84-42.667,43.84c-5.891,0-10.667,4.776-10.667,10.667v64h-21.333V512h32
			c5.891,0,10.667-4.776,10.667-10.667v-64.939c33.344-6.304,49.237-41.483,53.12-60.928c0.143-0.702,0.214-1.417,0.213-2.133
			V266.667H469.34z"/>
	</g>
</g>
<g>
	<g>
		<rect x="330.67" y="288" width="21.333" height="64"/>
	</g>
</g>
<g>
	<g>
		<path d="M341.34,298.667L341.34,298.667L341.34,298.667z"/>
	</g>
</g>
<g>
	<g>
		<path d="M341.34,0c-82.475,0-149.333,66.859-149.333,149.333h21.333c0.005-16.807,3.32-33.449,9.756-48.975
			c27.069-65.304,101.953-96.3,167.258-69.231c65.304,27.069,96.3,101.953,69.231,167.258
			c-27.069,65.304-101.953,96.3-167.258,69.231l-8.16,19.712c18.122,7.519,37.554,11.373,57.173,11.339
			c82.475,0,149.333-66.859,149.333-149.334C490.673,66.859,423.815,0,341.34,0z"/>
	</g>
</g>
<g>
	<g>
		<path d="M341.34,341.333c-17.673,0-32,14.327-32,32V480c0,17.673,14.327,32,32,32c17.673,0,32-14.327,32-32V373.333
			C373.34,355.66,359.013,341.333,341.34,341.333z M352.007,480c0,5.891-4.776,10.667-10.667,10.667s-10.667-4.776-10.667-10.667
			V373.333c0-5.891,4.776-10.667,10.667-10.667s10.667,4.776,10.667,10.667V480z"/>
	</g>
</g>
<g>
	<g>
		<path d="M181.34,256v-53.333h-21.333v64c0,5.891,4.776,10.667,10.667,10.667h74.667V256H181.34z"/>
	</g>
</g>
<g>
	<g>
		<path d="M376.465,99.125l-71.541,71.541h-49.771c-2.829,0.001-5.541,1.125-7.541,3.125l-84.48,84.48l15.083,15.083L259.569,192
			h49.771c2.829-0.001,5.541-1.125,7.541-3.125l74.667-74.667L376.465,99.125z"/>
	</g>
</g>
<g>
</g>
<g>
</g>
<g>
</g>
<g>
</g>
<g>
</g>
<g>
</g>
<g>
</g>
<g>
</g>
<g>
</g>
<g>
</g>
<g>
</g>
<g>
</g>
<g>
</g>
<g>
</g>
<g>
</g>
</svg>
