<?xml version="1.0" encoding="iso-8859-1"?>
<!-- Generator: Adobe Illustrator 19.0.0, SVG Export Plug-In . SVG Version: 6.00 Build 0)  -->
<svg version="1.1" id="Capa_1" xmlns="http://www.w3.org/2000/svg" xmlns:xlink="http://www.w3.org/1999/xlink" x="0px" y="0px"
	 viewBox="0 0 512 512" style="enable-background:new 0 0 512 512;" xml:space="preserve">
<g>
	<g>
		<path d="M373.466,154.496V53.333c0-5.891-4.776-10.667-10.667-10.667h-64c-5.891,0-10.667,4.776-10.667,10.667v101.163
			c-81.336,19.691-138.634,92.485-138.667,176.171c0,5.891,4.776,10.667,10.667,10.667h80.917l39.541,39.541
			c4.165,4.164,10.917,4.164,15.083,0l77.792-77.792l35.125,35.125c2,2.001,4.713,3.125,7.541,3.125h53.333V320h-48.917
			l-39.541-39.541c-4.165-4.164-10.917-4.164-15.083,0l-77.792,77.792l-35.125-35.125c-2-2-4.713-3.125-7.541-3.125h-74.315
			c4.886-72.611,58.158-132.778,129.643-146.421c5.03-0.958,8.67-5.354,8.672-10.475V64h42.667v99.104
			c0.002,5.12,3.642,9.517,8.672,10.475c75.115,14.529,129.434,80.202,129.615,156.709c0.209,88.365-71.255,160.169-159.62,160.379
			h-10.667V512h10.667c83.49-0.135,156.097-57.26,175.877-138.373C530.403,276.331,470.762,178.222,373.466,154.496z"/>
	</g>
</g>
<g>
	<g>
		<path d="M394.799,0h-128c-5.891,0-10.667,4.776-10.667,10.667v42.667c0,5.891,4.776,10.667,10.667,10.667h128
			c5.891,0,10.667-4.776,10.667-10.667V10.667C405.466,4.776,400.69,0,394.799,0z M384.132,42.667H277.466V21.333h106.667V42.667z"
			/>
	</g>
</g>
<g>
	<g>
		<rect x="234.799" width="192" height="21.333"/>
	</g>
</g>
<g>
	<g>
		<rect x="277.466" y="490.667" width="21.333" height="21.333"/>
	</g>
</g>
<g>
	<g>
		<rect x="234.799" y="490.667" width="21.333" height="21.333"/>
	</g>
</g>
<g>
	<g>
		<path d="M74.799,180.672V160c0.088-76.547,62.12-138.578,138.667-138.667V0c-88.324,0.1-159.9,71.676-160,160v17.931l-52,94.251
			c-0.873,1.577-1.331,3.35-1.333,5.152c-0.018,0.606-0.018,1.213,0,1.819c0.502,17.171,14.829,30.684,32,30.181
			c7.758,0.431,15.2,3.218,21.333,7.989V352c-0.024,0.815-0.024,1.631,0,2.447c0.676,22.888,19.778,40.896,42.667,40.22h63.691
			c1.835,0.117,10.976,1.707,10.976,21.333v85.333c0,5.891,4.776,10.667,10.667,10.667h32v-21.333h-21.333V416
			c0-33.749-20.928-42.667-32-42.667h-64c-0.866,0.056-1.735,0.056-2.602,0c-11.064-0.719-19.45-10.27-18.732-21.333v-39.765
			c0.001-3.055-1.308-5.964-3.595-7.989C60.506,294.388,46.666,288.633,32.132,288c-0.047,0.006-0.095,0.011-0.142,0.016
			c-5.143,0.545-9.755-3.182-10.301-8.326l51.776-93.867C74.338,184.247,74.797,182.474,74.799,180.672z"/>
	</g>
</g>
<g>
	<g>
		<path d="M309.124,213.333c-46.802,0.647-84.533,38.529-84.992,85.333h21.333c0.514-35.264,29.075-63.674,64.341-64
			L309.124,213.333z"/>
	</g>
</g>
<g>
</g>
<g>
</g>
<g>
</g>
<g>
</g>
<g>
</g>
<g>
</g>
<g>
</g>
<g>
</g>
<g>
</g>
<g>
</g>
<g>
</g>
<g>
</g>
<g>
</g>
<g>
</g>
<g>
</g>
</svg>
