<?xml version="1.0" encoding="iso-8859-1"?>
<!-- Generator: Adobe Illustrator 19.0.0, SVG Export Plug-In . SVG Version: 6.00 Build 0)  -->
<svg version="1.1" id="Capa_1" xmlns="http://www.w3.org/2000/svg" xmlns:xlink="http://www.w3.org/1999/xlink" x="0px" y="0px"
	 viewBox="0 0 512 512" style="enable-background:new 0 0 512 512;" xml:space="preserve">
<g>
	<g>
		<path d="M262.738,28.007H15c-8.284,0-15,6.716-15,15v184.077c0,8.284,6.716,14.999,15,14.999h247.738c8.284,0,15-6.716,15-15
			V43.007C277.738,34.723,271.022,28.007,262.738,28.007z M222.007,58.007l-83.138,58.679L55.731,58.007H222.007z M30,76.565
			l82.857,58.48L30,193.525V76.565z M55.731,212.084l83.138-58.679l83.138,58.679H55.731z M247.739,193.525l-82.857-58.48
			l82.857-58.48V193.525z"/>
	</g>
</g>
<g>
	<g>
		<path d="M497,28.007H319.519c-8.284,0-15,6.716-15,15s6.716,15,15,15H497c8.284,0,15-6.716,15-15S505.284,28.007,497,28.007z"/>
	</g>
</g>
<g>
	<g>
		<path d="M497,89.366H319.519c-8.284,0-15,6.716-15,15s6.716,15,15,15H497c8.284,0,15-6.716,15-15S505.284,89.366,497,89.366z"/>
	</g>
</g>
<g>
	<g>
		<path d="M497,150.725H319.519c-8.284,0-15,6.716-15,15s6.716,15,15,15H497c8.284,0,15-6.716,15-15S505.284,150.725,497,150.725z"
			/>
	</g>
</g>
<g>
	<g>
		<path d="M497,212.083H319.519c-8.284,0-15,6.716-15,15s6.716,15,15,15H497c8.284,0,15-6.716,15-15S505.284,212.083,497,212.083z"
			/>
	</g>
</g>
<g>
	<g>
		<path d="M497,269.917H249.262c-8.284,0-15,6.716-15,15v184.076c0,8.284,6.716,15,15,15H497c8.284,0,15-6.716,15-15V284.917
			C512,276.633,505.284,269.917,497,269.917z M456.269,299.917l-83.138,58.678l-83.137-58.678H456.269z M264.261,318.475
			l82.857,58.48l-82.857,58.48V318.475z M289.993,453.993l83.138-58.678l83.137,58.678H289.993z M482,435.435l-82.857-58.48
			L482,318.475V435.435z"/>
	</g>
</g>
<g>
	<g>
		<path d="M192.481,453.993H15c-8.284,0-15,6.716-15,15s6.716,15,15,15h177.481c8.284,0,15-6.716,15-15
			S200.765,453.993,192.481,453.993z"/>
	</g>
</g>
<g>
	<g>
		<path d="M192.481,392.635H15c-8.284,0-15,6.716-15,15s6.716,15,15,15h177.481c8.284,0,15-6.716,15-15
			S200.765,392.635,192.481,392.635z"/>
	</g>
</g>
<g>
	<g>
		<path d="M192.481,331.275H15c-8.284,0-15,6.716-15,15s6.716,15,15,15h177.481c8.284,0,15-6.716,15-15
			S200.765,331.275,192.481,331.275z"/>
	</g>
</g>
<g>
	<g>
		<path d="M192.481,269.917H15c-8.284,0-15,6.716-15,15s6.716,15,15,15h177.481c8.284,0,15-6.716,15-15
			S200.765,269.917,192.481,269.917z"/>
	</g>
</g>
<g>
</g>
<g>
</g>
<g>
</g>
<g>
</g>
<g>
</g>
<g>
</g>
<g>
</g>
<g>
</g>
<g>
</g>
<g>
</g>
<g>
</g>
<g>
</g>
<g>
</g>
<g>
</g>
<g>
</g>
</svg>
