<?xml version="1.0" encoding="iso-8859-1"?>
<!-- Generator: Adobe Illustrator 19.0.0, SVG Export Plug-In . SVG Version: 6.00 Build 0)  -->
<svg version="1.1" id="Capa_1" xmlns="http://www.w3.org/2000/svg" xmlns:xlink="http://www.w3.org/1999/xlink" x="0px" y="0px"
	 viewBox="0 0 490 490" style="enable-background:new 0 0 490 490;" xml:space="preserve">
<g>
	<path d="M0,444.063h490V45.938H0V444.063z M15.313,61.25h459.375v367.5H15.313V61.25z"/>
	<rect x="245" y="122.5" width="183.75" height="15.313"/>
	<rect x="245" y="168.438" width="153.125" height="15.312"/>
	<rect x="61.25" y="306.25" width="183.75" height="15.313"/>
	<rect x="91.875" y="352.188" width="153.125" height="15.312"/>
	<path d="M199.063,107.188H61.25V245h137.813V107.188z M130.879,141.769c8.457,0,15.339,6.88,15.339,15.339
		c0,8.458-6.882,15.339-15.339,15.339c-8.458,0-15.34-6.88-15.34-15.339C115.539,148.649,122.421,141.769,130.879,141.769z
		 M130.879,210.419h-37.56c0,0-0.261-21.128,20.605-27.388l16.955,12.781l16.954-12.781c20.867,6.26,20.606,27.388,20.606,27.388
		H130.879z"/>
	<path d="M290.938,382.732H428.75V244.92H290.938V382.732z M331.023,295.842l10.826-10.826l17.989,17.989l17.989-17.989
		l10.826,10.826l-17.989,17.989l17.989,17.989l-10.826,10.826l-17.989-17.989l-17.989,17.989l-10.826-10.826l17.989-17.989
		L331.023,295.842z"/>
</g>
<g>
</g>
<g>
</g>
<g>
</g>
<g>
</g>
<g>
</g>
<g>
</g>
<g>
</g>
<g>
</g>
<g>
</g>
<g>
</g>
<g>
</g>
<g>
</g>
<g>
</g>
<g>
</g>
<g>
</g>
</svg>
