<?xml version="1.0" encoding="iso-8859-1"?>
<!-- Generator: Adobe Illustrator 19.0.0, SVG Export Plug-In . SVG Version: 6.00 Build 0)  -->
<svg version="1.1" id="Capa_1" xmlns="http://www.w3.org/2000/svg" xmlns:xlink="http://www.w3.org/1999/xlink" x="0px" y="0px"
	 viewBox="0 0 512 512" style="enable-background:new 0 0 512 512;" xml:space="preserve">
<g>
	<g>
		<path d="M478.624,26.539H33.376C14.973,26.539,0,41.51,0,59.914v392.171c0,18.403,14.973,33.376,33.376,33.376h445.248
			c18.403,0,33.376-14.973,33.376-33.376V59.914C512,41.51,497.027,26.539,478.624,26.539z M492,452.084
			c0,7.375-6,13.376-13.376,13.376H33.376c-7.376,0-13.376-6-13.376-13.376V122.153h472V452.084z M492,102.154H20V59.914
			c0-7.375,6-13.376,13.376-13.376h445.248c7.376,0,13.376,6,13.376,13.376V102.154z"/>
	</g>
</g>
<g>
	<g>
		<path d="M461.37,142.783H50.63c-5.522,0-10,4.477-10,10v282.048c0,5.523,4.477,10,10,10h410.74c5.522,0,10-4.477,10-10V152.783
			C471.37,147.26,466.892,142.783,461.37,142.783z M451.37,424.831H60.63V162.783h390.74V424.831z"/>
	</g>
</g>
<g>
	<g>
		<path d="M421.406,338.941H90.594c-5.522,0-10,4.477-10,10v48.756c0,5.523,4.478,10,10,10h330.813c5.522,0,10-4.477,10-10v-48.756
			C431.406,343.419,426.929,338.941,421.406,338.941z M411.407,387.698L411.407,387.698H100.594v-28.756h310.813V387.698z"/>
	</g>
</g>
<g>
	<g>
		<path d="M237.405,188.349H88.562c-5.522,0-10,4.477-10,10v105.305c0,5.522,4.477,9.999,10,9.999h148.843c5.522,0,10-4.477,10-10
			V198.349C247.405,192.826,242.927,188.349,237.405,188.349z M227.405,293.654H98.562v-85.305h128.843V293.654z"/>
	</g>
</g>
<g>
	<g>
		<path d="M207.557,265.55L182.75,251l24.807-14.55c4.763-2.795,6.36-8.922,3.566-13.686c-2.795-4.763-8.921-6.362-13.686-3.566
			l-34.454,20.208l-34.454-20.208c-4.766-2.795-10.892-1.198-13.686,3.566c-2.794,4.764-1.197,10.891,3.566,13.686L143.216,251
			l-24.807,14.55c-4.764,2.794-6.36,8.921-3.566,13.686c1.862,3.174,5.203,4.942,8.636,4.942c1.719,0,3.46-0.443,5.05-1.376
			l34.454-20.208l34.454,20.208c1.59,0.933,3.331,1.376,5.05,1.376c3.432,0,6.773-1.768,8.636-4.942
			C213.917,274.472,212.32,268.346,207.557,265.55z"/>
	</g>
</g>
<g>
	<g>
		<path d="M423.438,189.831H289.397c-5.522,0-10,4.477-10,10s4.478,10,10,10h134.041c5.522,0,10-4.477,10-10
			S428.961,189.831,423.438,189.831z"/>
	</g>
</g>
<g>
	<g>
		<path d="M423.438,292.17H289.397c-5.522,0-10,4.477-10,10s4.478,10,10,10h134.041c5.522,0,10-4.477,10-10
			S428.961,292.17,423.438,292.17z"/>
	</g>
</g>
<g>
	<g>
		<path d="M299.2,249.05c-0.131-0.64-0.32-1.27-0.57-1.87c-0.25-0.61-0.561-1.19-0.92-1.73c-0.36-0.55-0.78-1.06-1.24-1.52
			c-2.32-2.32-5.78-3.39-9.03-2.73c-0.63,0.12-1.26,0.32-1.87,0.57c-0.6,0.25-1.18,0.56-1.72,0.92c-0.55,0.36-1.06,0.78-1.52,1.24
			c-0.46,0.46-0.88,0.97-1.25,1.52c-0.36,0.54-0.67,1.12-0.92,1.73c-0.25,0.6-0.44,1.23-0.57,1.87s-0.19,1.3-0.19,1.95
			c0,0.65,0.061,1.31,0.19,1.95c0.13,0.64,0.32,1.27,0.57,1.87c0.25,0.61,0.56,1.19,0.92,1.73c0.37,0.55,0.79,1.06,1.25,1.52
			c0.46,0.46,0.97,0.88,1.52,1.24c0.54,0.37,1.12,0.67,1.72,0.92c0.61,0.25,1.24,0.45,1.87,0.57c0.65,0.13,1.311,0.2,1.96,0.2
			c2.631,0,5.21-1.07,7.07-2.93c0.46-0.46,0.88-0.97,1.24-1.52c0.359-0.54,0.67-1.12,0.92-1.73c0.25-0.6,0.439-1.23,0.57-1.87
			c0.13-0.64,0.199-1.3,0.199-1.95C299.399,250.35,299.33,249.69,299.2,249.05z"/>
	</g>
</g>
<g>
	<g>
		<path d="M423.438,241h-95.441c-5.522,0-10,4.477-10,10c0,5.523,4.478,10,10,10h95.441c5.522,0,10-4.477,10-10
			S428.961,241,423.438,241z"/>
	</g>
</g>
<g>
	<g>
		<path d="M460.889,72.51c-0.119-0.64-0.32-1.27-0.57-1.87c-0.25-0.61-0.55-1.19-0.909-1.73c-0.37-0.55-0.79-1.06-1.25-1.52
			c-0.46-0.46-0.971-0.88-1.521-1.24c-0.54-0.36-1.12-0.67-1.72-0.92c-0.61-0.25-1.24-0.44-1.87-0.57c-1.29-0.26-2.62-0.26-3.91,0
			c-0.64,0.13-1.27,0.32-1.87,0.57c-0.609,0.25-1.189,0.56-1.729,0.92c-0.55,0.36-1.061,0.78-1.521,1.24
			c-0.46,0.46-0.88,0.97-1.239,1.52c-0.36,0.54-0.671,1.12-0.921,1.73c-0.25,0.6-0.439,1.23-0.569,1.87s-0.2,1.3-0.2,1.95
			c0,0.66,0.07,1.31,0.2,1.96c0.13,0.64,0.319,1.26,0.569,1.87c0.25,0.6,0.561,1.18,0.921,1.72c0.359,0.55,0.779,1.06,1.239,1.53
			c0.46,0.46,0.971,0.87,1.521,1.24c0.54,0.36,1.12,0.67,1.729,0.92c0.601,0.25,1.23,0.44,1.87,0.57c0.641,0.13,1.3,0.19,1.95,0.19
			s1.31-0.06,1.96-0.19c0.63-0.13,1.26-0.32,1.87-0.57c0.6-0.25,1.18-0.56,1.72-0.92c0.55-0.37,1.061-0.78,1.521-1.24
			c0.46-0.47,0.88-0.98,1.25-1.53c0.359-0.54,0.659-1.12,0.909-1.72c0.25-0.61,0.45-1.23,0.57-1.87c0.13-0.65,0.2-1.3,0.2-1.96
			C461.089,73.81,461.019,73.15,460.889,72.51z"/>
	</g>
</g>
<g>
	<g>
		<path d="M413.203,64.463H216.919c-5.522,0-10,4.477-10,10s4.478,10,10,10h196.284c5.522,0,10-4.477,10-10
			S418.726,64.463,413.203,64.463z"/>
	</g>
</g>
<g>
	<g>
		<path d="M107.62,72.51c-0.129-0.64-0.32-1.27-0.57-1.87c-0.25-0.61-0.56-1.19-0.92-1.73c-0.37-0.55-0.78-1.06-1.25-1.52
			c-0.46-0.46-0.97-0.88-1.521-1.24c-0.54-0.36-1.119-0.67-1.72-0.92c-0.609-0.25-1.24-0.44-1.87-0.57c-1.29-0.26-2.62-0.26-3.91,0
			c-0.64,0.13-1.27,0.32-1.869,0.57c-0.61,0.25-1.19,0.56-1.73,0.92c-0.55,0.36-1.06,0.78-1.52,1.24
			c-0.46,0.46-0.881,0.97-1.24,1.52c-0.36,0.54-0.67,1.12-0.92,1.73c-0.25,0.6-0.44,1.23-0.57,1.87s-0.2,1.3-0.2,1.95
			c0,0.65,0.07,1.31,0.2,1.96c0.13,0.63,0.32,1.26,0.57,1.87c0.25,0.6,0.56,1.18,0.92,1.72c0.359,0.55,0.78,1.06,1.24,1.52
			c0.46,0.47,0.97,0.88,1.52,1.25c0.54,0.36,1.12,0.67,1.73,0.92c0.6,0.25,1.229,0.44,1.869,0.57c0.641,0.13,1.301,0.19,1.95,0.19
			c0.66,0,1.311-0.06,1.96-0.19c0.63-0.13,1.261-0.32,1.87-0.57c0.601-0.25,1.18-0.56,1.72-0.92c0.551-0.37,1.061-0.78,1.521-1.25
			c0.47-0.46,0.88-0.97,1.25-1.52c0.36-0.54,0.67-1.12,0.92-1.72c0.25-0.61,0.44-1.24,0.57-1.87c0.13-0.65,0.189-1.31,0.189-1.96
			C107.809,73.81,107.749,73.15,107.62,72.51z"/>
	</g>
</g>
<g>
	<g>
		<path d="M144.519,72.51c-0.12-0.64-0.319-1.27-0.569-1.87c-0.25-0.6-0.561-1.19-0.92-1.73c-0.36-0.55-0.78-1.06-1.24-1.52
			c-0.46-0.46-0.971-0.88-1.521-1.24c-0.54-0.36-1.12-0.67-1.729-0.92c-0.601-0.25-1.23-0.44-1.87-0.57c-1.29-0.26-2.61-0.26-3.91,0
			c-0.63,0.13-1.26,0.32-1.87,0.57c-0.6,0.25-1.18,0.56-1.72,0.92c-0.55,0.36-1.061,0.78-1.521,1.24c-0.46,0.46-0.88,0.97-1.25,1.52
			c-0.359,0.54-0.67,1.13-0.92,1.73c-0.25,0.6-0.439,1.23-0.569,1.87c-0.13,0.64-0.19,1.3-0.19,1.95c0,0.66,0.061,1.31,0.19,1.96
			c0.13,0.64,0.319,1.26,0.569,1.87c0.25,0.6,0.561,1.18,0.92,1.72c0.37,0.55,0.79,1.06,1.25,1.52c0.46,0.47,0.971,0.88,1.521,1.25
			c0.54,0.36,1.12,0.67,1.72,0.92c0.61,0.25,1.24,0.44,1.87,0.57c0.65,0.13,1.31,0.19,1.96,0.19c0.65,0,1.311-0.06,1.95-0.19
			c0.64-0.13,1.27-0.32,1.87-0.57c0.609-0.25,1.189-0.56,1.729-0.92c0.55-0.37,1.061-0.78,1.521-1.25c0.46-0.46,0.88-0.97,1.24-1.52
			c0.359-0.54,0.67-1.12,0.92-1.72c0.25-0.61,0.449-1.23,0.569-1.87c0.13-0.65,0.2-1.3,0.2-1.96
			C144.719,73.81,144.649,73.15,144.519,72.51z"/>
	</g>
</g>
<g>
	<g>
		<path d="M67.979,67.39C65.66,65.07,62.2,64,58.95,64.659c-0.631,0.13-1.261,0.32-1.87,0.57c-0.601,0.25-1.181,0.56-1.721,0.92
			c-0.55,0.36-1.06,0.78-1.52,1.24c-0.46,0.46-0.88,0.97-1.25,1.52c-0.36,0.54-0.67,1.12-0.92,1.73c-0.25,0.6-0.44,1.23-0.57,1.87
			s-0.189,1.3-0.189,1.95c0,0.66,0.06,1.31,0.189,1.96c0.13,0.63,0.32,1.26,0.57,1.87c0.25,0.6,0.56,1.18,0.92,1.72
			c0.37,0.55,0.79,1.06,1.25,1.52c0.46,0.47,0.97,0.88,1.52,1.25c0.54,0.36,1.12,0.67,1.721,0.92c0.609,0.25,1.239,0.44,1.87,0.57
			c0.649,0.13,1.31,0.19,1.96,0.19c2.63,0,5.21-1.06,7.069-2.93c1.86-1.86,2.931-4.44,2.931-7.07
			C70.91,71.83,69.84,69.25,67.979,67.39z"/>
	</g>
</g>
<g>
</g>
<g>
</g>
<g>
</g>
<g>
</g>
<g>
</g>
<g>
</g>
<g>
</g>
<g>
</g>
<g>
</g>
<g>
</g>
<g>
</g>
<g>
</g>
<g>
</g>
<g>
</g>
<g>
</g>
</svg>
