<?xml version="1.0" encoding="iso-8859-1"?>
<!-- Generator: Adobe Illustrator 19.0.0, SVG Export Plug-In . SVG Version: 6.00 Build 0)  -->
<svg version="1.1" id="Capa_1" xmlns="http://www.w3.org/2000/svg" xmlns:xlink="http://www.w3.org/1999/xlink" x="0px" y="0px"
	 viewBox="0 0 512 512" style="enable-background:new 0 0 512 512;" xml:space="preserve">
<g>
	<g>
		<path d="M494.479,123.595C505.778,112.297,512,97.229,512,81.166c0-16.063-6.222-31.132-17.521-42.429L473.264,17.52
			C461.967,6.222,446.898,0,430.836,0c-16.064,0-31.131,6.222-42.43,17.52L255.979,149.946L106.185,0.15L0.109,106.226
			l149.796,149.795L35.358,370.568L0,512l141.433-35.359l114.546-114.546l149.795,149.796l106.073-106.074L362.054,256.021
			L494.479,123.595z M409.621,38.733c5.63-5.629,13.165-8.731,21.215-8.731c8.049,0,15.583,3.101,21.215,8.733l21.215,21.215
			c5.631,5.631,8.733,13.166,8.733,21.215s-3.102,15.583-8.733,21.215l-10.607,10.607l-63.645-63.645L409.621,38.733z
			 M377.798,70.557l63.645,63.645l-21.216,21.216l-63.645-63.645L377.798,70.557z M42.539,106.226l63.645-63.645l28.717,28.717
			l-21.215,21.215l21.215,21.215l21.215-21.215l28.717,28.717l-21.215,21.215l21.215,21.215l21.215-21.215l28.717,28.717
			l-63.645,63.645L42.539,106.226z M335.368,112.988l21.216,21.215L91.333,399.452l-21.215-21.215L335.368,112.988z M41.234,470.766
			l15.797-63.187l47.39,47.39L41.234,470.766z M133.763,441.881l-21.215-21.215l265.249-265.249l21.215,21.215L133.763,441.881z
			 M369.556,305.953l-21.215,21.215l21.215,21.215l21.215-21.215l28.717,28.717l-21.215,21.215l21.215,21.215l21.215-21.215
			l28.717,28.717l-63.645,63.645l-128.58-128.58l63.645-63.645L369.556,305.953z"/>
	</g>
</g>
<g>
</g>
<g>
</g>
<g>
</g>
<g>
</g>
<g>
</g>
<g>
</g>
<g>
</g>
<g>
</g>
<g>
</g>
<g>
</g>
<g>
</g>
<g>
</g>
<g>
</g>
<g>
</g>
<g>
</g>
</svg>
