<?xml version="1.0" encoding="iso-8859-1"?>
<!-- Generator: Adobe Illustrator 19.0.0, SVG Export Plug-In . SVG Version: 6.00 Build 0)  -->
<svg version="1.1" id="Capa_1" xmlns="http://www.w3.org/2000/svg" xmlns:xlink="http://www.w3.org/1999/xlink" x="0px" y="0px"
	 viewBox="0 0 512 512" style="enable-background:new 0 0 512 512;" xml:space="preserve">
<g>
	<g>
		<path d="M449.243,347.638c4.149,0,7.511-3.362,7.511-7.511V7.511c0-4.149-3.362-7.511-7.511-7.511H62.757
			c-4.149,0-7.511,3.362-7.511,7.511v59.045c0,4.149,3.362,7.511,7.511,7.511s7.511-3.362,7.511-7.511V46.711h371.464v69.731H70.268
			V96.599c0-4.149-3.362-7.511-7.511-7.511s-7.511,3.362-7.511,7.511v27.352v146.803v160.323v73.411
			c0,4.149,3.362,7.511,7.511,7.511h386.486c4.149,0,7.511-3.362,7.511-7.511v-73.411v-60.902c0-4.149-3.362-7.511-7.511-7.511
			s-7.511,3.362-7.511,7.511v53.391H70.268V278.266h371.464v61.861C441.732,344.276,445.094,347.638,449.243,347.638z
			 M70.268,31.689V15.022h371.464v16.667H70.268z M441.732,438.589v58.389H70.268v-58.389H441.732z M408.316,131.463L256,189.318
			l-152.316-57.856H408.316z M70.268,134.84l164.579,62.513L70.268,259.867V134.84z M441.731,259.867l-103.628-39.362
			c-3.878-1.469-8.215,0.477-9.689,4.355c-1.473,3.878,0.478,8.215,4.355,9.689l75.544,28.694h-304.63L256,205.388l48.591,18.457
			c0.878,0.333,1.779,0.491,2.666,0.491c3.028,0,5.883-1.846,7.023-4.846c1.473-3.878-0.478-8.215-4.355-9.689l-32.772-12.448
			l164.579-62.513V259.867z"/>
	</g>
</g>
<g>
	<g>
		<path d="M324.441,74.066H187.559c-4.149,0-7.511,3.362-7.511,7.511s3.362,7.511,7.511,7.511h136.882
			c4.149,0,7.511-3.362,7.511-7.511S328.59,74.066,324.441,74.066z"/>
	</g>
</g>
<g>
	<g>
		<path d="M173.49,300.466h-56.334c-4.149,0-7.511,3.362-7.511,7.511v56.334c0,4.149,3.362,7.511,7.511,7.511h56.334
			c4.149,0,7.511-3.362,7.511-7.511v-56.334C181.001,303.828,177.639,300.466,173.49,300.466z M165.979,356.8h-41.313v-41.313
			h41.313V356.8z"/>
	</g>
</g>
<g>
	<g>
		<path d="M173.49,383.454h-56.334c-4.149,0-7.511,3.362-7.511,7.511s3.362,7.511,7.511,7.511h56.334
			c4.149,0,7.511-3.362,7.511-7.511C181.001,386.817,177.638,383.454,173.49,383.454z"/>
	</g>
</g>
<g>
	<g>
		<path d="M284.167,300.466h-56.334c-4.149,0-7.511,3.362-7.511,7.511v56.334c0,4.149,3.362,7.511,7.511,7.511h56.334
			c4.149,0,7.511-3.362,7.511-7.511v-56.334C291.677,303.828,288.316,300.466,284.167,300.466z M276.656,356.8h-41.313v-41.313
			h41.313V356.8z"/>
	</g>
</g>
<g>
	<g>
		<path d="M284.167,383.454h-56.334c-4.149,0-7.511,3.362-7.511,7.511s3.362,7.511,7.511,7.511h56.334
			c4.149,0,7.511-3.362,7.511-7.511C291.677,386.817,288.316,383.454,284.167,383.454z"/>
	</g>
</g>
<g>
	<g>
		<path d="M394.845,300.466h-56.334c-4.149,0-7.511,3.362-7.511,7.511v56.334c0,4.149,3.362,7.511,7.511,7.511h56.334
			c4.149,0,7.511-3.362,7.511-7.511v-56.334C402.356,303.828,398.994,300.466,394.845,300.466z M387.335,356.8h-41.313v-41.313
			h41.313V356.8z"/>
	</g>
</g>
<g>
	<g>
		<path d="M394.845,383.454h-56.334c-4.149,0-7.511,3.362-7.511,7.511s3.362,7.511,7.511,7.511h56.334
			c4.149,0,7.511-3.362,7.511-7.511C402.356,386.817,398.993,383.454,394.845,383.454z"/>
	</g>
</g>
<g>
	<g>
		<path d="M156.038,460.272h-45.933c-4.149,0-7.511,3.362-7.511,7.511s3.362,7.511,7.511,7.511h45.933
			c4.149,0,7.511-3.363,7.511-7.511C163.549,463.634,160.187,460.272,156.038,460.272z"/>
	</g>
</g>
<g>
	<g>
		<path d="M237.991,460.272h-45.934c-4.149,0-7.511,3.362-7.511,7.511s3.362,7.511,7.511,7.511h45.934
			c4.149,0,7.511-3.363,7.511-7.511C245.502,463.634,242.14,460.272,237.991,460.272z"/>
	</g>
</g>
<g>
	<g>
		<path d="M319.944,460.272H274.01c-4.149,0-7.511,3.362-7.511,7.511s3.362,7.511,7.511,7.511h45.934
			c4.148,0,7.511-3.363,7.511-7.511C327.455,463.634,324.092,460.272,319.944,460.272z"/>
	</g>
</g>
<g>
	<g>
		<path d="M401.897,460.272h-45.933c-4.149,0-7.511,3.362-7.511,7.511s3.362,7.511,7.511,7.511h45.933
			c4.149,0,7.511-3.363,7.511-7.511C409.407,463.634,406.046,460.272,401.897,460.272z"/>
	</g>
</g>
<g>
</g>
<g>
</g>
<g>
</g>
<g>
</g>
<g>
</g>
<g>
</g>
<g>
</g>
<g>
</g>
<g>
</g>
<g>
</g>
<g>
</g>
<g>
</g>
<g>
</g>
<g>
</g>
<g>
</g>
</svg>
